<svg width="264" height="464" viewBox="0 0 264 464" fill="none" xmlns="http://www.w3.org/2000/svg">
<path d="M-366.75 0H-438V77.3333M-366.75 0V77.3333M-366.75 0H-295.5M-366.75 77.3333H-438M-366.75 77.3333V154.667M-366.75 77.3333H-295.5M-438 77.3333V154.667M-366.75 154.667H-438M-366.75 154.667V232M-366.75 154.667H-295.5M-438 154.667V232M-366.75 232H-438M-366.75 232V309.333M-366.75 232H-295.5M-438 232V309.333M-366.75 309.333H-438M-366.75 309.333V386.667M-366.75 309.333H-295.5M-438 309.333V386.667M-366.75 386.667H-438M-366.75 386.667V464M-366.75 386.667H-295.5M-438 386.667V464H-366.75M-366.75 464H-295.5M-295.5 0V77.3333M-295.5 0H-224.25M-295.5 77.3333V154.667M-295.5 77.3333H-224.25M-295.5 154.667V232M-295.5 154.667H-224.25M-295.5 232V309.333M-295.5 232H-224.25M-295.5 309.333V386.667M-295.5 309.333H-224.25M-295.5 386.667V464M-295.5 386.667H-224.25M-295.5 464H-224.25M-224.25 0V77.3333M-224.25 0H-153M-224.25 77.3333V154.667M-224.25 77.3333H-153M-224.25 154.667V232M-224.25 154.667H-153M-224.25 232V309.333M-224.25 232H-153M-224.25 309.333V386.667M-224.25 309.333H-153M-224.25 386.667V464M-224.25 386.667H-153M-224.25 464H-153M-153 0V77.3333M-153 0H-81.75M-153 77.3333V154.667M-153 77.3333H-81.75M-153 154.667V232M-153 154.667H-81.75M-153 232V309.333M-153 232H-81.75M-153 309.333V386.667M-153 309.333H-81.75M-153 386.667V464M-153 386.667H-81.75M-153 464H-81.75M-81.75 0V77.3333M-81.75 0H-10.5M-81.75 77.3333V154.667M-81.75 77.3333H-10.5M-81.75 154.667V232M-81.75 154.667H-10.5M-81.75 232V309.333M-81.75 232H-10.5M-81.75 309.333V386.667M-81.75 309.333H-10.5M-81.75 386.667V464M-81.75 386.667H-10.5M-81.75 464H-10.5M-10.5 0V77.3333M-10.5 0H60.75M-10.5 77.3333V154.667M-10.5 77.3333H60.75M-10.5 154.667V232M-10.5 154.667H60.75M-10.5 232V309.333M-10.5 232H60.75M-10.5 309.333V386.667M-10.5 309.333H60.75M-10.5 386.667V464M-10.5 386.667H60.75M-10.5 464H60.75M60.75 0V77.3333M60.75 0H132M60.75 77.3333V154.667M60.75 77.3333H132M60.75 154.667V232M60.75 154.667H132M60.75 232V309.333M60.75 232H132M60.75 309.333V386.667M60.75 309.333H132M60.75 386.667V464M60.75 386.667H132M60.75 464H132M132 0V77.3333M132 0H203.25M132 77.3333V154.667M132 77.3333H203.25M132 154.667V232M132 154.667H203.25M132 232V309.333M132 232H203.25M132 309.333V386.667M132 309.333H203.25M132 386.667V464M132 386.667H203.25M132 464H203.25M203.25 0V77.3333M203.25 0H274.5M203.25 77.3333V154.667M203.25 77.3333H274.5M203.25 154.667V232M203.25 154.667H274.5M203.25 232V309.333M203.25 232H274.5M203.25 309.333V386.667M203.25 309.333H274.5M203.25 386.667V464M203.25 386.667H274.5M203.25 464H274.5M274.5 0V77.3333M274.5 0H345.75M274.5 77.3333V154.667M274.5 77.3333H345.75M274.5 154.667V232M274.5 154.667H345.75M274.5 232V309.333M274.5 232H345.75M274.5 309.333V386.667M274.5 309.333H345.75M274.5 386.667V464M274.5 386.667H345.75M274.5 464H345.75M345.75 0V77.3333M345.75 0H417M345.75 77.3333V154.667M345.75 77.3333H417M345.75 154.667V232M345.75 154.667H417M345.75 232V309.333M345.75 232H417M345.75 309.333V386.667M345.75 309.333H417M345.75 386.667V464M345.75 386.667H417M345.75 464H417M417 0V77.3333M417 0H488.25M417 77.3333V154.667M417 77.3333H488.25M417 154.667V232M417 154.667H488.25M417 232V309.333M417 232H488.25M417 309.333V386.667M417 309.333H488.25M417 386.667V464M417 386.667H488.25M417 464H488.25M488.25 0V77.3333M488.25 0H559.5M488.25 77.3333V154.667M488.25 77.3333H559.5M488.25 154.667V232M488.25 154.667H559.5M488.25 232V309.333M488.25 232H559.5M488.25 309.333V386.667M488.25 309.333H559.5M488.25 386.667V464M488.25 386.667H559.5M488.25 464H559.5M559.5 0V77.3333M559.5 0H630.75M559.5 77.3333V154.667M559.5 77.3333H630.75M559.5 154.667V232M559.5 154.667H630.75M559.5 232V309.333M559.5 232H630.75M559.5 309.333V386.667M559.5 309.333H630.75M559.5 386.667V464M559.5 386.667H630.75M559.5 464H630.75M630.75 0V77.3333M630.75 0H702V77.3333M630.75 77.3333V154.667M630.75 77.3333H702M630.75 154.667V232M630.75 154.667H702M630.75 232V309.333M630.75 232H702M630.75 309.333V386.667M630.75 309.333H702M630.75 386.667V464M630.75 386.667H702M630.75 464H702V386.667M702 77.3333V154.667M702 154.667V232M702 232V309.333M702 309.333V386.667" stroke="url(#paint0_radial_4094_5308)" stroke-opacity="0.2"/>
<defs>
<radialGradient id="paint0_radial_4094_5308" cx="0" cy="0" r="1" gradientUnits="userSpaceOnUse" gradientTransform="translate(132 232) rotate(90) scale(232 570)">
<stop stop-color="white"/>
<stop offset="1" stop-color="white" stop-opacity="0"/>
</radialGradient>
</defs>
</svg>
